<svg fill="none" height="48" viewBox="0 0 48 48" width="48" xmlns="http://www.w3.org/2000/svg"><path clip-rule="evenodd" d="m17 21v-4h4v4zm-2-5c0-.5523.4477-1 1-1h6c.5523 0 1 .4477 1 1v6c0 .5523-.4477 1-1 1h-6c-.5523 0-1-.4477-1-1zm12 5v-4h4v4zm-2-5c0-.5523.4477-1 1-1h6c.5523 0 1 .4477 1 1v6c0 .5523-.4477 1-1 1h-6c-.5523 0-1-.4477-1-1zm-8 11v4h4v-4zm-1-2c-.5523 0-1 .4477-1 1v6c0 .5523.4477 1 1 1h6c.5523 0 1-.4477 1-1v-6c0-.5523-.4477-1-1-1zm11 6v-4h4v4zm-2-5c0-.5523.4477-1 1-1h6c.5523 0 1 .4477 1 1v6c0 .5523-.4477 1-1 1h-6c-.5523 0-1-.4477-1-1z" fill="#222" fill-rule="evenodd"/></svg>